<?xml version="1.0" standalone="no"?>
<!DOCTYPE svg PUBLIC "-//W3C//DTD SVG 20010904//EN"
 "http://www.w3.org/TR/2001/REC-SVG-20010904/DTD/svg10.dtd">
<svg version="1.0" xmlns="http://www.w3.org/2000/svg"
 width="504.000000pt" height="504.000000pt" viewBox="0 0 504.000000 504.000000"
 preserveAspectRatio="xMidYMid meet">
<metadata>
Created by potrace 1.14, written by Peter Selinger 2001-2017
</metadata>
<g transform="translate(0.000000,504.000000) scale(0.100000,-0.100000)"
fill="#000000" stroke="none">
<path d="M2477 3974 c-1 -1 -24 -4 -52 -8 -194 -23 -482 -142 -668 -276 -85
-61 -105 -77 -188 -155 -164 -153 -311 -384 -379 -595 -11 -36 -24 -72 -27
-80 -3 -8 -7 -24 -9 -35 -5 -31 -12 -60 -14 -60 -1 0 -3 -11 -5 -25 -1 -14 -6
-51 -9 -82 l-7 -56 63 60 c175 167 175 166 198 230 137 377 449 679 845 818
88 31 93 34 214 151 l124 120 -42 -2 c-23 -2 -43 -4 -44 -5z"/>
<path d="M2674 3967 c-6 -7 -40 -39 -75 -73 l-65 -60 73 -70 c41 -38 78 -69
83 -69 8 0 150 133 150 141 0 5 -140 138 -148 141 -4 1 -12 -3 -18 -10z"/>
<path d="M2345 3654 c-87 -84 -294 -281 -475 -454 -32 -30 -131 -125 -220
-210 -89 -85 -193 -184 -231 -220 -38 -36 -69 -70 -69 -75 0 -5 32 -39 72 -77
l72 -68 25 23 c14 12 62 56 106 99 44 42 103 98 131 125 28 26 127 121 220
209 93 89 187 179 209 199 22 21 120 115 218 209 98 94 183 173 188 174 5 2 9
8 9 14 0 11 -140 148 -150 148 -3 0 -50 -44 -105 -96z"/>
<path d="M2846 3679 l-75 -71 36 -34 c20 -19 113 -107 206 -197 193 -184 205
-195 428 -407 89 -85 197 -189 240 -230 42 -41 104 -100 136 -131 l59 -57 77
75 77 74 -96 92 c-53 51 -125 119 -159 152 -34 33 -147 141 -250 240 -103 99
-211 203 -240 230 -207 198 -348 330 -355 333 -4 2 -42 -29 -84 -69z"/>
<path d="M1182 2540 l-73 -70 23 -28 c13 -15 46 -48 73 -74 l51 -47 79 75 80
74 -74 70 c-41 39 -77 70 -80 70 -3 0 -39 -32 -79 -70z"/>
<path d="M4040 2539 l-74 -71 70 -69 c38 -37 74 -68 79 -68 6 0 43 31 84 68
l73 69 -73 71 c-41 39 -76 71 -79 71 -3 0 -39 -32 -80 -71z"/>
<path d="M1623 2512 l-44 -44 41 -40 42 -39 992 0 c545 0 1005 0 1021 1 21 0
44 12 75 40 l44 40 -43 40 c-23 22 -45 40 -49 41 -4 1 -463 2 -1021 3 l-1013
1 -45 -43z"/>
<path d="M1422 2322 c-40 -37 -72 -71 -72 -76 0 -10 192 -196 203 -196 4 0 5
-4 2 -10 -3 -5 -2 -10 3 -10 5 0 61 -50 123 -111 63 -61 197 -190 298 -287
101 -97 247 -239 325 -314 77 -76 146 -138 151 -138 6 0 41 30 78 67 l69 68
-139 133 c-76 74 -245 238 -377 366 -131 127 -277 268 -325 314 -47 46 -127
124 -176 173 l-91 88 -72 -67z"/>
<path d="M3874 2372 c-7 -4 -110 -101 -229 -217 -292 -282 -323 -311 -545
-525 -106 -102 -222 -213 -257 -248 l-65 -63 68 -65 c37 -35 72 -64 77 -64 5
0 19 10 31 23 12 12 97 94 190 182 93 88 192 183 220 210 29 28 126 120 215
205 90 85 191 182 226 215 34 33 100 95 145 139 l83 78 -73 69 c-40 38 -73 69
-74 69 -1 0 -6 -4 -12 -8z"/>
<path d="M1117 2306 c-4 -9 -3 -16 1 -16 4 0 9 -15 10 -33 1 -18 5 -44 8 -57
3 -14 8 -41 11 -60 3 -19 10 -41 15 -48 6 -7 8 -15 5 -19 -4 -3 -2 -12 4 -20
6 -7 9 -13 6 -13 -3 0 0 -15 8 -32 7 -18 13 -35 13 -38 0 -3 5 -16 10 -30 14
-35 24 -64 22 -69 -1 -2 2 -7 7 -10 5 -3 21 -31 36 -61 33 -68 60 -114 70
-118 4 -2 7 -8 7 -13 0 -10 62 -97 110 -154 29 -35 156 -161 191 -190 40 -33
150 -115 154 -115 3 0 30 -16 62 -37 48 -30 116 -64 228 -113 73 -32 228 -74
330 -90 39 -6 82 -13 98 -16 15 -2 27 -1 27 3 0 5 -26 32 -57 61 -32 29 -85
80 -118 113 -54 52 -72 63 -157 93 -148 52 -359 170 -437 244 -10 9 -42 40
-72 68 -139 131 -276 341 -330 509 -8 26 -35 62 -78 104 -36 35 -91 88 -122
118 -44 43 -58 51 -62 39z"/>
<path d="M2604 1160 l-71 -69 69 -68 c37 -38 72 -69 76 -71 5 -1 42 29 83 68
l74 70 -70 70 c-38 38 -74 70 -80 70 -5 0 -42 -32 -81 -70z"/>
</g>
</svg>
